<svg width="737" height="190" viewBox="0 0 737 190" fill="none" xmlns="http://www.w3.org/2000/svg">
<path d="M5.97109 196.459C5.97109 196.459 -27.9284 77.1143 102.363 88.2996C102.363 88.2996 152.328 -42.23 214.821 23.0348C214.821 23.0348 250.538 -10.5211 257.662 23.0348C257.662 23.0348 346.931 -31.0446 368.351 34.2203C368.351 34.2203 423.671 4.40982 454.033 64.0307C454.033 64.0307 521.881 65.8778 495.105 99.4337C495.105 99.4337 593.315 75.216 575.432 153.513C575.432 153.513 621.86 114.365 632.57 155.36C632.57 155.36 709.359 129.244 709.359 181.476C709.359 181.476 739.722 172.138 734.367 202L5.97109 196.407V196.459Z" fill="#FFFFFA" stroke="#231F20" stroke-width="3" stroke-miterlimit="10"/>
</svg>
