<?xml version="1.0" encoding="UTF-8"?>
<svg xmlns="http://www.w3.org/2000/svg" version="1.1" xmlns:xlink="http://www.w3.org/1999/xlink" viewBox="0 0 737 190">
  <defs>
    <style>
      .cls-1 {
        fill: #a3d17b;
      }

      .cls-2, .cls-3 {
        fill: none;
      }

      .cls-4 {
        fill: #fffffa;
        stroke: #231f20;
      }

      .cls-4, .cls-3 {
        stroke-miterlimit: 10;
        stroke-width: 3px;
      }

      .cls-3 {
        stroke: #010101;
      }

      .cls-5 {
        clip-path: url(#clippath);
      }
    </style>
    <clipPath id="clippath">
      <rect class="cls-2" x="226.5" y="48.5" width="122" height="122"/>
    </clipPath>
  </defs>
  <!-- Generator: Adobe Illustrator 28.7.3, SVG Export Plug-In . SVG Version: 1.2.0 Build 164)  -->
  <g>
    <g id="bottomCloud">
      <g id="bottom-cloud">
        <path class="cls-4" d="M6,196.5S-27.9,77.1,102.4,88.3c0,0,50-130.5,112.5-65.3,0,0,35.7-33.6,42.8,0,0,0,89.3-54.1,110.7,11.2,0,0,55.3-29.8,85.7,29.8,0,0,67.8,1.8,41.1,35.4,0,0,98.2-24.2,80.3,54.1,0,0,46.4-39.1,57.1,1.8,0,0,76.8-26.1,76.8,26.1,0,0,30.4-9.3,25,20.5L6,196.4h0Z"/>
      </g>
    </g>
    <g id="emailLogo">
      <g id="email-icon">
        <g class="cls-5">
          <g>
            <path class="cls-1" d="M243.2,65.7c-2,0-3.7,2.2-3.7,4.9v6.7l39.7,43.1c4.8,5.2,11.6,5.2,16.4,0l39.7-43.1v-6.7c0-2.7-1.7-4.9-3.7-4.9h-88.5,0ZM239.6,96.2v52.3c0,2.7,1.7,4.9,3.7,4.9h88.5c2,0,3.7-2.2,3.7-4.9v-52.3l-32.7,35.4c-8.9,9.6-21.6,9.6-30.4,0l-32.7-35.4h0ZM228.5,70.6c0-10.7,6.6-19.4,14.7-19.4h88.5c8.1,0,14.7,8.7,14.7,19.4v77.9c0,10.7-6.6,19.4-14.7,19.4h-88.5c-8.1,0-14.7-8.7-14.7-19.4v-77.9h0Z"/>
            <path class="cls-3" d="M243.2,65.7c-2,0-3.7,2.2-3.7,4.9v6.7l39.7,43.1c4.8,5.2,11.6,5.2,16.4,0l39.7-43.1v-6.7c0-2.7-1.7-4.9-3.7-4.9h-88.5,0ZM239.6,96.2v52.3c0,2.7,1.7,4.9,3.7,4.9h88.5c2,0,3.7-2.2,3.7-4.9v-52.3l-32.7,35.4c-8.9,9.6-21.6,9.6-30.4,0l-32.7-35.4h0ZM228.5,70.6c0-10.7,6.6-19.4,14.7-19.4h88.5c8.1,0,14.7,8.7,14.7,19.4v77.9c0,10.7-6.6,19.4-14.7,19.4h-88.5c-8.1,0-14.7-8.7-14.7-19.4v-77.9h0Z"/>
          </g>
        </g>
      </g>
    </g>
  </g>
</svg>