<svg width="130" height="129" viewBox="0 0 130 129" fill="none" xmlns="http://www.w3.org/2000/svg">
<g filter="url(#filter0_d_7_28)">
<g clip-path="url(#clip0_7_28)">
<g filter="url(#filter1_d_7_28)">
<path d="M20.738 17.1971C18.7007 17.1971 17.0629 19.3925 17.0629 22.0583V28.8012L56.8107 71.8723C61.5645 77.0471 68.4355 77.0471 73.1893 71.8723L112.937 28.8012V22.0583C112.937 19.3925 111.259 17.1971 109.262 17.1971H20.738ZM17.0629 47.671V99.9417C17.0629 102.608 18.7407 104.803 20.738 104.803H109.262C111.299 104.803 112.937 102.608 112.937 99.9417V47.671L80.22 83.1105C71.3517 92.6761 58.6084 92.6761 49.78 83.1105L17.0629 47.671ZM5.99738 22.0583C5.99738 11.3428 12.6287 2.61354 20.738 2.61354H109.262C117.411 2.61354 124.003 11.3428 124.003 22.0583V99.9417C124.003 110.657 117.371 119.386 109.262 119.386H20.738C12.5887 119.386 5.99738 110.657 5.99738 99.9417V22.0583Z" fill="#A3D17B"/>
<path d="M20.738 17.1971C18.7007 17.1971 17.0629 19.3925 17.0629 22.0583V28.8012L56.8107 71.8723C61.5645 77.0471 68.4355 77.0471 73.1893 71.8723L112.937 28.8012V22.0583C112.937 19.3925 111.259 17.1971 109.262 17.1971H20.738ZM17.0629 47.671V99.9417C17.0629 102.608 18.7407 104.803 20.738 104.803H109.262C111.299 104.803 112.937 102.608 112.937 99.9417V47.671L80.22 83.1105C71.3517 92.6761 58.6084 92.6761 49.78 83.1105L17.0629 47.671ZM5.99738 22.0583C5.99738 11.3428 12.6287 2.61354 20.738 2.61354H109.262C117.411 2.61354 124.003 11.3428 124.003 22.0583V99.9417C124.003 110.657 117.371 119.386 109.262 119.386H20.738C12.5887 119.386 5.99738 110.657 5.99738 99.9417V22.0583Z" stroke="#010101" stroke-width="3" stroke-miterlimit="10"/>
</g>
</g>
</g>
<defs>
<filter id="filter0_d_7_28" x="0" y="0" width="130" height="130" filterUnits="userSpaceOnUse" color-interpolation-filters="sRGB">
<feFlood flood-opacity="0" result="BackgroundImageFix"/>
<feColorMatrix in="SourceAlpha" type="matrix" values="0 0 0 0 0 0 0 0 0 0 0 0 0 0 0 0 0 0 127 0" result="hardAlpha"/>
<feOffset dy="4"/>
<feGaussianBlur stdDeviation="2"/>
<feComposite in2="hardAlpha" operator="out"/>
<feColorMatrix type="matrix" values="0 0 0 0 0 0 0 0 0 0 0 0 0 0 0 0 0 0 0.25 0"/>
<feBlend mode="normal" in2="BackgroundImageFix" result="effect1_dropShadow_7_28"/>
<feBlend mode="normal" in="SourceGraphic" in2="effect1_dropShadow_7_28" result="shape"/>
</filter>
<filter id="filter1_d_7_28" x="0.497375" y="1.11354" width="129.005" height="127.773" filterUnits="userSpaceOnUse" color-interpolation-filters="sRGB">
<feFlood flood-opacity="0" result="BackgroundImageFix"/>
<feColorMatrix in="SourceAlpha" type="matrix" values="0 0 0 0 0 0 0 0 0 0 0 0 0 0 0 0 0 0 127 0" result="hardAlpha"/>
<feOffset dy="4"/>
<feGaussianBlur stdDeviation="2"/>
<feComposite in2="hardAlpha" operator="out"/>
<feColorMatrix type="matrix" values="0 0 0 0 0 0 0 0 0 0 0 0 0 0 0 0 0 0 0.25 0"/>
<feBlend mode="normal" in2="BackgroundImageFix" result="effect1_dropShadow_7_28"/>
<feBlend mode="normal" in="SourceGraphic" in2="effect1_dropShadow_7_28" result="shape"/>
</filter>
<clipPath id="clip0_7_28">
<rect x="4" width="122" height="122" fill="white"/>
</clipPath>
</defs>
</svg>
