<?xml version="1.0" encoding="UTF-8"?>
<svg xmlns="http://www.w3.org/2000/svg" version="1.1" xmlns:xlink="http://www.w3.org/1999/xlink" viewBox="0 0 16 16">
  <defs>
    <style>
      .cls-1 {
        fill: #a3d17b;
      }

      .cls-1, .cls-2, .cls-3, .cls-4 {
        stroke: #231f20;
        stroke-linecap: round;
        stroke-linejoin: round;
        stroke-width: .2px;
      }

      .cls-5, .cls-4 {
        fill: none;
      }

      .cls-2 {
        fill: #f594a9;
      }

      .cls-3 {
        fill: #44c4da;
      }

      .cls-6 {
        fill: #fed76a;
      }

      .cls-7 {
        fill: #b3e3fa;
      }

      .cls-8 {
        clip-path: url(#clippath);
      }
    </style>
    <clipPath id="clippath">
      <rect class="cls-5" width="16" height="16"/>
    </clipPath>
  </defs>
  <!-- Generator: Adobe Illustrator 28.7.3, SVG Export Plug-In . SVG Version: 1.2.0 Build 164)  -->
  <g>
    <g id="Layer_1">
      <g class="cls-8">
        <g>
          <rect class="cls-7" width="16" height="16"/>
          <g>
            <g>
              <path class="cls-6" d="M4.4,2.7c.5-.5,1.5-1,2-1.4.2-.2.4-.3.7-.4.6-.1,1.3,0,2,.2.5.1,1,.1,1.5.3.7.3,1.1.8,1.2,1.4,0,.9-1,1.4-2,1.3-.6,0-1.6-.2-1.8-.6-.1-.4.8-.1,1.1-.2.7,0,.9-.8.6-1.2-.5-.8-2.7-.7-3,.2,0,.2,0,.3.1.5.6,1,1.8,2.9,2.4,3.7.2.1.4.1.7.2.5.1,1.1.3,1.6.5,1.1.4,2.3.9,2.4,2.1,0,.7-.3,1.5-.9,1.9-.3.2-.9.4-.8.7.1.7.7,2.2,1.7,1.8.4-.2.2-.8.5-1.1.6-.4.8.7.7,1.1-.2,1.2-1.4,1.6-2.5.9-.7-.4-1.2-1.3-1.3-2-.1-.5-.2-.7-.8-.6-.7,0-2,.2-2.9.1s-3.7-.4-4.3-.6c-.7-.3-1.9-.6-2.3-1.2-.3-.7,1-1.4,1.7-1.3.3,0,.7.2.6.4,0,.1-.1.2-.3.2-.2,0-.5,0-.6,0-.2.2.2.5.5.6.4.2,1,.3,1-.2,0-1.1.3-6.4.3-7.5,0-.1,0-.2,0-.3h0Z"/>
              <path class="cls-4" d="M4.4,2.7c.5-.5,1.5-1,2-1.4.2-.2.4-.3.7-.4.6-.1,1.3,0,2,.2.5.1,1,.1,1.5.3.7.3,1.1.8,1.2,1.4,0,.9-1,1.4-2,1.3-.6,0-1.6-.2-1.8-.6-.1-.4.8-.1,1.1-.2.7,0,.9-.8.6-1.2-.5-.8-2.7-.7-3,.2,0,.2,0,.3.1.5.6,1,1.8,2.9,2.4,3.7.2.1.4.1.7.2.5.1,1.1.3,1.6.5,1.1.4,2.3.9,2.4,2.1,0,.7-.3,1.5-.9,1.9-.3.2-.9.4-.8.7.1.7.7,2.2,1.7,1.8.4-.2.2-.8.5-1.1.6-.4.8.7.7,1.1-.2,1.2-1.4,1.6-2.5.9-.7-.4-1.2-1.3-1.3-2-.1-.5-.2-.7-.8-.6-.7,0-2,.2-2.9.1s-3.7-.4-4.3-.6c-.7-.3-1.9-.6-2.3-1.2-.3-.7,1-1.4,1.7-1.3.3,0,.7.2.6.4,0,.1-.1.2-.3.2-.2,0-.5,0-.6,0-.2.2.2.5.5.6.4.2,1,.3,1-.2,0-1.1.3-6.4.3-7.5,0-.1,0-.2,0-.3h0Z"/>
            </g>
            <path class="cls-3" d="M6.1,4.2c0,0,.1,0,.2.3.3.5.7,1.1,1,1.5-.1,0-1,.1-1.3-.5-.2-.4,0-.9,0-1.3h0s0,0,0,0Z"/>
            <path class="cls-2" d="M6.3,6.6c.3,0,.7.3,1.1.4.5.2,1,.3,1.3.8.6,1,1.4,2.1,2,3.1,0,0,0,.2,0,.3-1.6.9-4.2.2-4.7,0-.2-.1-.1-.4-.1-.6,0-.6,0-1.8,0-2.6,0-.4,0-1.1.4-1.3h0Z"/>
            <path class="cls-1" d="M10.3,8.4s0,0,0,0c0,.2.3.7,1,1.3.3.3.7.3,1.1.3,0,0,0,0,0,0,0-.9-.6-2-2.1-1.7h0,0Z"/>
          </g>
        </g>
      </g>
    </g>
  </g>
</svg>