<?xml version="1.0" encoding="UTF-8"?>
<svg id="Layer_1" xmlns="http://www.w3.org/2000/svg" xmlns:xlink="http://www.w3.org/1999/xlink" viewBox="0 0 16 16">
  <defs>
    <style>
      .cls-1 {
        fill: #44c4da;
      }

      .cls-1, .cls-2, .cls-3, .cls-4 {
        stroke-linecap: round;
        stroke-linejoin: round;
      }

      .cls-1, .cls-2, .cls-3, .cls-4, .cls-5 {
        stroke: #231f20;
        stroke-width: .25px;
      }

      .cls-6 {
        fill: #fed76a;
      }

      .cls-7, .cls-2 {
        fill: none;
      }

      .cls-3 {
        fill: #f594a9;
      }

      .cls-4 {
        fill: #a3d17b;
      }

      .cls-8 {
        fill: #b3e3fa;
      }

      .cls-9 {
        clip-path: url(#clippath);
      }

      .cls-5 {
        fill: #fffffa;
        stroke-miterlimit: 10;
      }
    </style>
    <clipPath id="clippath">
      <rect class="cls-7" width="16" height="16"/>
    </clipPath>
  </defs>
  <g class="cls-9">
    <g>
      <rect class="cls-8" width="16" height="16"/>
      <path class="cls-5" d="M10.54,10.31s.82-3.67,4.46-2.57c.09.03,2.4-2.61,4.05.51,0,0,2.64-1.36,1.22,1.23,0,0-.87-1.48-1.7,1.99,0,0,2.62,3.71-.03,3.25,0,0,1.31,6-2.08,4.89,0,0-2.67.36-4.92-.62,0,0-1.69,2.22-2.7.26,0,0-.48.85-1.22-.5,0,0-1.72.42-1.64-1.26,0,0-3.44-1.55.38-4.24,0,0-.21-2.22,1.98-1.91,0,0,.51-2.39,2.21-1.04h0Z"/>
      <g>
        <path class="cls-6" d="M4.87,3.54c.44-.38,1.21-.84,1.7-1.2.19-.13.36-.27.6-.31.51-.09,1.11.08,1.63.2.42.11.81.12,1.21.29.56.27.94.68.99,1.19,0,.78-.8,1.19-1.67,1.08-.47-.04-1.3-.19-1.51-.47-.09-.34.7-.1.91-.13.54-.01.76-.63.52-1-.45-.66-2.22-.56-2.48.18-.02.14.05.27.12.41.53.84,1.49,2.44,2.01,3.09.18.12.34.12.61.2.39.1.91.24,1.33.39.91.3,1.95.78,1.97,1.72.06.59-.26,1.25-.77,1.61-.29.2-.75.32-.7.61.1.6.6,1.82,1.42,1.51.36-.14.18-.7.4-.93.5-.31.68.62.57.93-.2.96-1.15,1.3-2.07.76-.57-.33-.96-1.05-1.08-1.66-.1-.45-.2-.6-.67-.51-.58.07-1.62.19-2.4.12-.78-.07-3.05-.33-3.54-.5-.61-.22-1.57-.46-1.94-.98-.29-.61.79-1.18,1.43-1.05.25.02.56.19.52.35-.02.1-.12.15-.23.16-.16.03-.4-.05-.52.05-.13.16.18.45.4.52.37.14.85.24.86-.13.04-.92.24-5.28.28-6.2,0-.1.01-.18.08-.27h0s0,0,0,0Z"/>
        <path class="cls-2" d="M4.87,3.54c.44-.38,1.21-.84,1.7-1.2.19-.13.36-.27.6-.31.51-.09,1.11.08,1.63.2.42.11.81.12,1.21.29.56.27.94.68.99,1.19,0,.78-.8,1.19-1.67,1.08-.47-.04-1.3-.19-1.51-.47-.09-.34.7-.1.91-.13.54-.01.76-.63.52-1-.45-.66-2.22-.56-2.48.18-.02.14.05.27.12.41.53.84,1.49,2.44,2.01,3.09.18.12.34.12.61.2.39.1.91.24,1.33.39.91.3,1.95.78,1.97,1.72.06.59-.26,1.25-.77,1.61-.29.2-.75.32-.7.61.1.6.6,1.82,1.42,1.51.36-.14.18-.7.4-.93.5-.31.68.62.57.93-.2.96-1.15,1.3-2.07.76-.57-.33-.96-1.05-1.08-1.66-.1-.45-.2-.6-.67-.51-.58.07-1.62.19-2.4.12-.78-.07-3.05-.33-3.54-.5-.61-.22-1.57-.46-1.94-.98-.29-.61.79-1.18,1.43-1.05.25.02.56.19.52.35-.02.1-.12.15-.23.16-.16.03-.4-.05-.52.05-.13.16.18.45.4.52.37.14.85.24.86-.13.04-.92.24-5.28.28-6.2,0-.1.01-.18.08-.27h0s0,0,0,0Z"/>
      </g>
      <path class="cls-1" d="M6.33,4.78c.04-.06.09.07.2.23.23.38.59.9.79,1.27-.1.05-.86.1-1.08-.44-.14-.34-.05-.72.08-1.05h0s0-.01,0-.01Z"/>
      <path class="cls-3" d="M6.43,6.81c.29-.08.59.26.88.34.41.19.84.27,1.04.66.52.82,1.15,1.75,1.64,2.56.04.08.04.16-.04.21-1.34.75-3.51.15-3.86-.08-.15-.1-.12-.31-.12-.48.01-.5.05-1.52.07-2.14,0-.35.05-.88.36-1.07h.02Z"/>
      <path class="cls-4" d="M9.76,8.26s-.05.03-.05.06c.03.16.28.6.79,1.09.22.21.62.28.92.27.03,0,.05-.01.06-.03.06-.71-.47-1.67-1.71-1.4h-.02Z"/>
    </g>
  </g>
</svg>