<svg width="318" height="354" viewBox="0 0 318 354" fill="none" xmlns="http://www.w3.org/2000/svg">
<path d="M192.217 184.422C192.217 184.422 203.476 298.003 88.23 301.095C85.452 301.174 82.5488 298.101 82.5488 298.101C82.5488 298.101 79.449 399.179 1.99999 325C1.99999 325 -96.5768 389.314 -80.5 301.095C-80.5 301.095 -41.3365 335.5 -50.5 227.5C-50.5 227.5 -161.531 145.332 -80.5 133.41C-80.5 133.41 -175.424 -27.2345 -67 -27.5C-67 -27.5 6.63649 -63.4667 80.8283 -56.5433C80.8283 -56.5433 108.331 -136.486 156.186 -89.7636C156.186 -89.7636 161.924 -118.834 196.126 -87.1031C196.126 -87.1031 241.825 -115.77 255.454 -66.454C255.454 -66.454 369.54 -54.588 284.941 59.4832C284.941 59.4832 312.239 121.48 246.046 133.41C246.046 133.41 253.943 207.201 192.326 184.428L192.217 184.422Z" fill="#FFFEF9" stroke="#231F20" stroke-width="3" stroke-miterlimit="10"/>
</svg>
