<?xml version="1.0" encoding="UTF-8"?>
<svg id="Layer_1" xmlns="http://www.w3.org/2000/svg" viewBox="0 0 80 60">
  <defs>
    <style>
      .cls-1 {
        fill: #fffffa;
        stroke: #231f20;
        stroke-miterlimit: 10;
      }
    </style>
  </defs>
  <path class="cls-1" d="M3.87,30.45s-3.3-12.06,5.6-9.55c0,0-2.94-16.58,12.85-10.62,0,0,11.7-7.9,18.09,1.65,0,0,6.46-5.38,9.19.5,0,0,11.42-3.55,10.94,7.04,0,.16-.02.33-.03.5,0,0,11.49-1.58,8.47,7.9,0,0,3.42.77,3.53,3.73,0,.16,0,.33-.01.5,0,0,6.32,1.08,2.08,5.6,0,0,6.68,13.35-8.4,11.99,0,0-.29,5.38-6.46,2.01,0,0-10.55,7.18-14.79-3.52,0,0-3.09,5.31-8.04.07,0,0-5,7.82-9.98-2.15-.05-.09-.09-.19-.14-.29,0,0-6.46,3.66-8.18-3.3,0,0-11.92,4.02-9.69-3.37,0,0-10.77,1.36-5.03-8.69Z"/>
</svg>