<?xml version="1.0" encoding="UTF-8"?>
<svg id="Layer_1" xmlns="http://www.w3.org/2000/svg" viewBox="0 0 80 60">
  <defs>
    <style>
      .cls-1 {
        fill: #fff;
        stroke: #231f20;
        stroke-miterlimit: 10;
      }
    </style>
  </defs>
  <path class="cls-1" d="M9.39,19.25s2.94-16.08,15.43-2.37c0,0,2.87-5.27,6.87-1.27.05.05.35.37.45.48,0,0,5.67-8.61,10.48-1.65,0,0,14.07-9.98,17.95,2.15,0,0,5.89.07,4.31,4.16,0,0,10.55-.14,8.76,8.4,0,0,5.24,3.8-.07,5.81,0,0,4.59,10.27-5.74,11.92,0,0-4.74,7.9-9.05-2.23,0,0-2.94,5.74-9.91,2.08,0,0-4.74,5.53-8.54-.43,0,0-10.48,9.91-16.51-1.29,0,0-4.28,3.87-5.39-.86-.02-.09-.04-.19-.06-.29,0,0-6.42,4.4-7.43-2.5-.01-.1-.03-.2-.04-.3,0,0-7.82.07-4.67-5.38,0,0-4.87-3.16-.93-5.91.09-.06.18-.13.28-.19,0,0-4.09-3.23,0-4.81,0,0-2.37-6.39,3.8-5.53Z"/>
</svg>