<?xml version="1.0" encoding="UTF-8"?>
<svg xmlns="http://www.w3.org/2000/svg" viewBox="0 0 197 199">
  <defs>
    <style>
      .cls-1 {
        fill: #fed769;
      }

      .cls-2 {
        fill: none;
      }

      .cls-2, .cls-3, .cls-4, .cls-5 {
        stroke: #231f20;
        stroke-linecap: round;
        stroke-linejoin: round;
        stroke-width: 3px;
      }

      .cls-3 {
        fill: #a3d17b;
      }

      .cls-4 {
        fill: #f594a9;
      }

      .cls-5 {
        fill: #44c4da;
      }
    </style>
  </defs>
  <g id="Layer_1">
    <g>
      <path class="cls-1" d="M51.13,26.14c6.87-5.99,18.98-13.18,26.72-18.83,3.02-2.03,5.73-4.22,9.45-4.93,8.03-1.36,17.41,1.24,25.68,3.2,6.62,1.75,12.74,1.86,19.05,4.54,8.8,4.27,14.82,10.62,15.52,18.73.15,12.28-12.6,18.64-26.18,16.98-7.45-.62-20.46-2.94-23.67-7.38-1.47-5.27,11.05-1.51,14.29-2.09,8.44-.17,11.99-9.87,8.22-15.7-7.08-10.34-34.89-8.83-38.97,2.82-.34,2.15.8,4.31,1.96,6.4,8.39,13.27,23.38,38.39,31.65,48.54,2.85,1.9,5.27,1.88,9.62,3.11,6.12,1.54,14.31,3.82,20.89,6.08,14.36,4.71,30.63,12.24,31,26.96.94,9.24-4.01,19.62-12.09,25.23-4.52,3.2-11.85,4.99-11.07,9.62,1.6,9.38,9.38,28.64,22.32,23.67,5.66-2.17,2.88-11.03,6.26-14.57,7.93-4.82,10.71,9.7,8.95,14.54-3.14,15.04-18.11,20.39-32.49,11.92-8.97-5.12-15.04-16.53-17.05-26.06-1.64-7.08-3.1-9.45-10.59-7.96-9.04,1.15-25.39,2.94-37.74,1.86-12.26-1.17-47.9-5.23-55.56-7.81-9.57-3.5-24.73-7.25-30.54-15.46-4.5-9.66,12.48-18.55,22.49-16.46,3.97.32,8.78,2.94,8.12,5.48-.24,1.51-1.93,2.32-3.55,2.45-2.47.47-6.29-.83-8.22.81-2.06,2.58,2.78,7.15,6.24,8.17,5.75,2.15,13.35,3.84,13.49-2.03.7-14.52,3.72-82.98,4.4-97.51.1-1.62.22-2.88,1.33-4.18l.15-.17-.05.02Z"/>
      <path class="cls-2" d="M51.13,26.14c6.87-5.99,18.98-13.18,26.72-18.83,3.02-2.03,5.73-4.22,9.45-4.93,8.03-1.36,17.41,1.24,25.68,3.2,6.62,1.75,12.74,1.86,19.05,4.54,8.8,4.27,14.82,10.62,15.52,18.73.15,12.28-12.6,18.64-26.18,16.98-7.45-.62-20.46-2.94-23.67-7.38-1.47-5.27,11.05-1.51,14.29-2.09,8.44-.17,11.99-9.87,8.22-15.7-7.08-10.34-34.89-8.83-38.97,2.82-.34,2.15.8,4.31,1.96,6.4,8.39,13.27,23.38,38.39,31.65,48.54,2.85,1.9,5.27,1.88,9.62,3.11,6.12,1.54,14.31,3.82,20.89,6.08,14.36,4.71,30.63,12.24,31,26.96.94,9.24-4.01,19.62-12.09,25.23-4.52,3.2-11.85,4.99-11.07,9.62,1.6,9.38,9.38,28.64,22.32,23.67,5.66-2.17,2.88-11.03,6.26-14.57,7.93-4.82,10.71,9.7,8.95,14.54-3.14,15.04-18.11,20.39-32.49,11.92-8.97-5.12-15.04-16.53-17.05-26.06-1.64-7.08-3.1-9.45-10.59-7.96-9.04,1.15-25.39,2.94-37.74,1.86-12.26-1.17-47.9-5.23-55.56-7.81-9.57-3.5-24.73-7.25-30.54-15.46-4.5-9.66,12.48-18.55,22.49-16.46,3.97.32,8.78,2.94,8.12,5.48-.24,1.51-1.93,2.32-3.55,2.45-2.47.47-6.29-.83-8.22.81-2.06,2.58,2.78,7.15,6.24,8.17,5.75,2.15,13.35,3.84,13.49-2.03.7-14.52,3.72-82.98,4.4-97.51.1-1.62.22-2.88,1.33-4.18l.15-.17-.05.02Z"/>
    </g>
  </g>
  <g id="Layer_2">
    <path class="cls-4" d="M75.52,77.77c4.59-1.28,9.26,4.01,13.81,5.42,6.43,3.03,13.15,4.27,16.34,10.34,8.22,12.95,18.13,27.45,25.85,40.24.63,1.3.58,2.58-.63,3.26-21.08,11.77-55.1,2.39-60.61-1.22-2.37-1.56-1.84-4.9-1.81-7.59.19-7.91.8-23.84,1.11-33.59-.1-5.57.85-13.88,5.66-16.74l.29-.13Z"/>
  </g>
  <g id="Layer_3">
    <path class="cls-3" d="M128.05,100.01c-.58.23-.8.49-.77.98.46,2.49,4.35,9.38,12.45,17.12,3.46,3.31,9.82,4.33,14.51,4.29.51-.06.82-.21.99-.49.92-11.15-7.35-26.3-26.93-21.99l-.24.09Z"/>
  </g>
  <g id="Layer_4">
    <path class="cls-5" d="M73.76,45.44c.65-.9,1.4,1.11,3.07,3.56,3.63,5.97,9.21,14.18,12.45,20-1.62.81-13.49,1.51-16.95-6.87-2.13-5.37-.8-11.37,1.31-16.51l.14-.19h-.02Z"/>
  </g>
</svg>