<?xml version="1.0" encoding="UTF-8"?>
<svg xmlns="http://www.w3.org/2000/svg" version="1.1" viewBox="0 0 197 199">
  <defs>
    <style>
      .cls-1 {
        fill: #fed769;
      }

      .cls-2 {
        fill: none;
      }

      .cls-2, .cls-3, .cls-4, .cls-5 {
        stroke: #231f20;
        stroke-linecap: round;
        stroke-linejoin: round;
        stroke-width: 3px;
      }

      .cls-3 {
        fill: #a3d17b;
      }

      .cls-4 {
        fill: #f594a9;
      }

      .cls-5 {
        fill: #44c4da;
      }
    </style>
  </defs>
  <!-- Generator: Adobe Illustrator 28.7.3, SVG Export Plug-In . SVG Version: 1.2.0 Build 164)  -->
  <g>
    <g id="Layer_1">
      <g>
        <path class="cls-1" d="M51.1,26.1c6.9-6,19-13.2,26.7-18.8,3-2,5.7-4.2,9.5-4.9,8-1.4,17.4,1.2,25.7,3.2,6.6,1.7,12.7,1.9,19.1,4.5,8.8,4.3,14.8,10.6,15.5,18.7.1,12.3-12.6,18.6-26.2,17-7.4-.6-20.5-2.9-23.7-7.4-1.5-5.3,11-1.5,14.3-2.1,8.4-.2,12-9.9,8.2-15.7-7.1-10.3-34.9-8.8-39,2.8-.3,2.2.8,4.3,2,6.4,8.4,13.3,23.4,38.4,31.6,48.5,2.9,1.9,5.3,1.9,9.6,3.1,6.1,1.5,14.3,3.8,20.9,6.1,14.4,4.7,30.6,12.2,31,27,.9,9.2-4,19.6-12.1,25.2-4.5,3.2-11.8,5-11.1,9.6,1.6,9.4,9.4,28.6,22.3,23.7,5.7-2.2,2.9-11,6.3-14.6,7.9-4.8,10.7,9.7,8.9,14.5-3.1,15-18.1,20.4-32.5,11.9-9-5.1-15-16.5-17-26.1-1.6-7.1-3.1-9.4-10.6-8-9,1.2-25.4,2.9-37.7,1.9-12.3-1.2-47.9-5.2-55.6-7.8-9.6-3.5-24.7-7.3-30.5-15.5-4.5-9.7,12.5-18.6,22.5-16.5,4,.3,8.8,2.9,8.1,5.5-.2,1.5-1.9,2.3-3.6,2.5-2.5.5-6.3-.8-8.2.8-2.1,2.6,2.8,7.1,6.2,8.2,5.8,2.2,13.3,3.8,13.5-2,.7-14.5,3.7-83,4.4-97.5,0-1.6.2-2.9,1.3-4.2v-.2c.1,0,0,0,0,0Z"/>
        <path class="cls-2" d="M51.1,26.1c6.9-6,19-13.2,26.7-18.8,3-2,5.7-4.2,9.5-4.9,8-1.4,17.4,1.2,25.7,3.2,6.6,1.7,12.7,1.9,19.1,4.5,8.8,4.3,14.8,10.6,15.5,18.7.1,12.3-12.6,18.6-26.2,17-7.4-.6-20.5-2.9-23.7-7.4-1.5-5.3,11-1.5,14.3-2.1,8.4-.2,12-9.9,8.2-15.7-7.1-10.3-34.9-8.8-39,2.8-.3,2.2.8,4.3,2,6.4,8.4,13.3,23.4,38.4,31.6,48.5,2.9,1.9,5.3,1.9,9.6,3.1,6.1,1.5,14.3,3.8,20.9,6.1,14.4,4.7,30.6,12.2,31,27,.9,9.2-4,19.6-12.1,25.2-4.5,3.2-11.8,5-11.1,9.6,1.6,9.4,9.4,28.6,22.3,23.7,5.7-2.2,2.9-11,6.3-14.6,7.9-4.8,10.7,9.7,8.9,14.5-3.1,15-18.1,20.4-32.5,11.9-9-5.1-15-16.5-17-26.1-1.6-7.1-3.1-9.4-10.6-8-9,1.2-25.4,2.9-37.7,1.9-12.3-1.2-47.9-5.2-55.6-7.8-9.6-3.5-24.7-7.3-30.5-15.5-4.5-9.7,12.5-18.6,22.5-16.5,4,.3,8.8,2.9,8.1,5.5-.2,1.5-1.9,2.3-3.6,2.5-2.5.5-6.3-.8-8.2.8-2.1,2.6,2.8,7.1,6.2,8.2,5.8,2.2,13.3,3.8,13.5-2,.7-14.5,3.7-83,4.4-97.5,0-1.6.2-2.9,1.3-4.2v-.2c.1,0,0,0,0,0Z"/>
      </g>
      <path class="cls-5" d="M223,49c.7-.9,1.4,1.1,3.1,3.6,3.6,6,9.2,14.2,12.5,20-1.6.8-13.5,1.5-16.9-6.9-2.1-5.4-.8-11.4,1.3-16.5v-.2c.1,0,.1,0,.1,0Z"/>
      <path class="cls-4" d="M267.8,42.5c4.6-1.3,9.3,4,13.8,5.4,6.4,3,13.2,4.3,16.3,10.3,8.2,12.9,18.1,27.4,25.8,40.2.6,1.3.6,2.6-.6,3.3-21.1,11.8-55.1,2.4-60.6-1.2-2.4-1.6-1.8-4.9-1.8-7.6.2-7.9.8-23.8,1.1-33.6,0-5.6.8-13.9,5.7-16.7h.3Z"/>
      <path class="cls-3" d="M246.5,6.6c-.6.2-.8.5-.8,1,.5,2.5,4.4,9.4,12.5,17.1,3.5,3.3,9.8,4.3,14.5,4.3.5,0,.8-.2,1-.5.9-11.2-7.4-26.3-26.9-22h-.2Z"/>
    </g>
    <g id="Layer_2">
      <path class="cls-4" d="M75.5,77.8c4.6-1.3,9.3,4,13.8,5.4,6.4,3,13.2,4.3,16.3,10.3,8.2,12.9,18.1,27.4,25.8,40.2.6,1.3.6,2.6-.6,3.3-21.1,11.8-55.1,2.4-60.6-1.2-2.4-1.6-1.8-4.9-1.8-7.6.2-7.9.8-23.8,1.1-33.6,0-5.6.8-13.9,5.7-16.7h.3Z"/>
    </g>
    <g id="Layer_3">
      <path class="cls-3" d="M128,100c-.6.2-.8.5-.8,1,.5,2.5,4.4,9.4,12.5,17.1,3.5,3.3,9.8,4.3,14.5,4.3.5,0,.8-.2,1-.5.9-11.2-7.4-26.3-26.9-22h-.2Z"/>
    </g>
    <g id="Layer_4">
      <path class="cls-5" d="M73.8,45.4c.7-.9,1.4,1.1,3.1,3.6,3.6,6,9.2,14.2,12.5,20-1.6.8-13.5,1.5-16.9-6.9-2.1-5.4-.8-11.4,1.3-16.5v-.2c.1,0,.1,0,.1,0Z"/>
    </g>
  </g>
</svg>