<?xml version="1.0" encoding="UTF-8"?>
<svg xmlns="http://www.w3.org/2000/svg" version="1.1" xmlns:xlink="http://www.w3.org/1999/xlink" viewBox="0 0 399 274">
  <defs>
    <style>
      .cls-1, .cls-2 {
        fill: none;
      }

      .cls-3 {
        fill: #44c4da;
        stroke-linejoin: round;
      }

      .cls-3, .cls-2 {
        stroke: #231f20;
        stroke-width: 3px;
      }

      .cls-2 {
        stroke-miterlimit: 10;
      }

      .cls-4 {
        fill: #fffef9;
      }

      .cls-5 {
        clip-path: url(#clippath);
      }
    </style>
    <clipPath id="clippath">
      <rect class="cls-1" x="181" y="97" width="107" height="107"/>
    </clipPath>
  </defs>
  <!-- Generator: Adobe Illustrator 28.7.3, SVG Export Plug-In . SVG Version: 1.2.0 Build 164)  -->
  <g>
    <g id="rightCloud">
      <g id="right-cloud">
        <path class="cls-4" d="M404,22.9s-65.5-50.7-118,6c0,0-154.8-11.4-127.4,54.4,0,0-49.6-12.9-25.9,21.9,0,0-37.6.4-41.1,26.3,0,0-35.1.5-23.4,22,0,0-67.5-2.1-49.6,48.7,0,0-38.3,18.3,1.5,24.4,0,0-25.9,21.9,25,2.4,0,0,.7,43.8,39.1,23.9,0,0,45.9,42,82.9-7.1,0,0,96,40.3,130.9-17,0,0,28.4,41.5,72.2,10.4,0,0,3.1,47.1,31.4,28.6"/>
        <path class="cls-2" d="M404,22.9s-65.5-50.7-118,6c0,0-154.8-11.4-127.4,54.4,0,0-49.6-12.9-25.9,21.9,0,0-37.6.4-41.1,26.3,0,0-35.1.5-23.4,22,0,0-67.5-2.1-49.6,48.7,0,0-38.3,18.3,1.5,24.4,0,0-25.9,21.9,25,2.4,0,0,.7,43.8,39.1,23.9,0,0,45.9,42,82.9-7.1,0,0,96,40.3,130.9-17,0,0,28.4,41.5,72.2,10.4,0,0,3.1,47.1,31.4,28.6"/>
      </g>
    </g>
    <g id="linkedInLogo">
      <g id="linked-in">
        <g class="cls-5">
          <path class="cls-3" d="M278.6,99h-88.3c-4,0-7.3,3.3-7.3,7.4v88.1c0,4.1,3.3,7.4,7.3,7.4h88.3c4,0,7.4-3.3,7.4-7.4v-88.1c0-4.1-3.3-7.4-7.4-7.4h0ZM214.1,187.3h-15.3v-49.1h15.3v49.1h0ZM206.5,131.4c-4.9,0-8.8-4-8.8-8.8s4-8.8,8.8-8.8,8.8,4,8.8,8.8-4,8.8-8.8,8.8ZM271.4,187.3h-15.3v-23.9c0-5.7-.1-13-7.9-13s-9.2,6.2-9.2,12.6v24.3h-15.3v-49.1h14.6v6.7h.2c2.1-3.9,7-7.9,14.5-7.9,15.4,0,18.3,10.2,18.3,23.4v27h0Z"/>
        </g>
      </g>
    </g>
  </g>
</svg>