<svg width="399" height="274" viewBox="0 0 399 274" fill="none" xmlns="http://www.w3.org/2000/svg">
<path d="M404 22.869C404 22.869 338.465 -27.8622 286.045 28.8701C286.045 28.8701 131.243 17.4909 158.627 83.2413C158.627 83.2413 109.075 70.3207 132.696 105.114C132.696 105.114 95.104 105.541 91.5646 131.382C91.5646 131.382 56.4685 131.906 68.1299 153.353C68.1299 153.353 0.620613 151.222 18.5784 202.051C18.5784 202.051 -19.7215 220.317 20.106 226.417C20.106 226.417 -5.82464 248.29 45.0681 228.843C45.0681 228.843 45.776 272.655 84.1505 252.782C84.1505 252.782 130.014 294.79 167.084 245.666C167.084 245.666 263.095 286.002 298.004 228.712C298.004 228.712 326.357 270.163 370.208 239.107C370.208 239.107 373.3 286.231 401.616 267.67" fill="#FFFEF9"/>
<path d="M404 22.869C404 22.869 338.465 -27.8622 286.045 28.8701C286.045 28.8701 131.243 17.4909 158.627 83.2413C158.627 83.2413 109.075 70.3207 132.696 105.114C132.696 105.114 95.104 105.541 91.5646 131.382C91.5646 131.382 56.4685 131.906 68.1299 153.353C68.1299 153.353 0.620613 151.222 18.5784 202.051C18.5784 202.051 -19.7215 220.317 20.106 226.417C20.106 226.417 -5.82464 248.29 45.0681 228.843C45.0681 228.843 45.776 272.655 84.1505 252.782C84.1505 252.782 130.014 294.79 167.084 245.666C167.084 245.666 263.095 286.002 298.004 228.712C298.004 228.712 326.357 270.163 370.208 239.107C370.208 239.107 373.3 286.231 401.616 267.67" stroke="#231F20" stroke-width="3" stroke-miterlimit="10"/>
</svg>
