<?xml version="1.0" encoding="UTF-8"?>
<svg xmlns="http://www.w3.org/2000/svg" version="1.1" xmlns:xlink="http://www.w3.org/1999/xlink" viewBox="0 0 575 249">
  <defs>
    <style>
      .cls-1 {
        fill: none;
      }

      .cls-2 {
        fill: #f594a9;
      }

      .cls-2, .cls-3 {
        stroke: #231f20;
        stroke-miterlimit: 10;
        stroke-width: 3px;
      }

      .cls-4 {
        clip-path: url(#clippath);
      }

      .cls-3 {
        fill: #fffef9;
      }
    </style>
    <clipPath id="clippath">
      <rect class="cls-1" x="228.5" y="65.5" width="118" height="118"/>
    </clipPath>
  </defs>
  <!-- Generator: Adobe Illustrator 28.7.3, SVG Export Plug-In . SVG Version: 1.2.0 Build 164)  -->
  <g>
    <g id="topCloud">
      <g id="top-cloud">
        <path class="cls-3" d="M245.7,30.3s75.6-62.2,156.3-2.3c1.9,1.4,1.7,4.5,1.7,4.5,0,0,131.1-35,129.4,43,0,0,84,43,8.4,78,0,0,38.6,54.3-72.3,57.7,0,0-31.9,53.1-95.8,15.8,0,0-40.3,49.8-114.3-7.9,0,0-68.9,32.8-114.3-10.2,0,0-77.3,24.9-75.6-23.8,0,0-25.2,11.3-25.2-22.6,0,0-52.1-10.2-25.2-41.9,0,0-68.9-66.7,72.3-78,0,0,26.9-45.2,80.6-15.8,0,0,48.7-40.7,73.9,3.4h0Z"/>
      </g>
    </g>
    <g id="instagramLogo">
      <g id="instagram">
        <g class="cls-4">
          <path class="cls-2" d="M280,113.2c-6.3,4.2-7.9,12.7-3.8,18.9,4.2,6.3,12.7,7.9,18.9,3.8,6.3-4.2,7.9-12.7,3.8-18.9-4.2-6.2-12.7-7.9-18.9-3.8ZM316.3,95.7c-1.3-1.3-3-2.4-4.7-3.1-4.6-1.8-14.7-1.7-21.2-1.7h-5.8c-6.5,0-16.5-.2-21.2,1.7-1.8.7-3.3,1.7-4.7,3.1-1.4,1.3-2.4,3-3.1,4.7-1.8,4.6-1.7,14.7-1.7,21.3v5.7c0,6.5-.1,16.6,1.7,21.3.7,1.8,1.7,3.3,3.1,4.7,1.3,1.4,3,2.4,4.7,3.1,4.6,1.8,14.7,1.7,21.2,1.7h5.8c6.5,0,16.5.2,21.2-1.7,1.8-.7,3.3-1.7,4.7-3.1,1.4-1.3,2.4-3,3.1-4.7,1.8-4.6,1.7-14.7,1.7-21.2v-5.8c0-6.5.2-16.6-1.7-21.2-.7-1.8-1.7-3.3-3.1-4.7h0ZM299.2,107c9.6,6.4,12.2,19.5,5.8,29.1-6.4,9.6-19.5,12.2-29.1,5.8-9.6-6.4-12.2-19.4-5.8-29.1,6.4-9.6,19.4-12.2,29.1-5.8h0ZM306.6,106.7c-.8-.5-1.4-1.3-1.8-2.2s-.5-1.8-.3-2.8.7-1.8,1.3-2.5c.6-.7,1.6-1.1,2.5-1.3.9-.2,2,0,2.8.3.9.4,1.7,1,2.2,1.8s.8,1.7.8,2.7-.1,1.3-.4,1.8c-.2.6-.6,1.1-1,1.6s-1,.8-1.6,1.1c-.6.2-1.2.4-1.8.4-1,0-1.9-.3-2.7-.8h0ZM344.7,83.6c0-9-7.3-16.4-16.4-16.4h-81.7c-9,0-16.4,7.3-16.4,16.4v81.7c0,9,7.3,16.4,16.4,16.4h81.8c9,0,16.4-7.3,16.4-16.4v-81.7h-.1ZM321.5,158.4c-4.8,4.8-10.6,6.3-17.1,6.6-6.8.4-27,.4-33.7,0-6.5-.3-12.3-1.8-17.1-6.6s-6.3-10.6-6.6-17.1c-.4-6.8-.4-27,0-33.7.3-6.5,1.8-12.3,6.6-17.1,4.8-4.8,10.6-6.3,17.1-6.6,6.8-.4,27-.4,33.7,0,6.5.3,12.3,1.8,17.1,6.6,4.8,4.8,6.3,10.6,6.6,17.1.4,6.7.4,26.9,0,33.7-.3,6.5-1.8,12.3-6.6,17.1h0Z"/>
        </g>
      </g>
    </g>
  </g>
</svg>