<svg width="575" height="249" viewBox="0 0 575 249" fill="none" xmlns="http://www.w3.org/2000/svg">
<path d="M245.734 30.3291C245.734 30.3291 321.341 -31.8695 401.99 28.0584C403.938 29.5006 403.659 32.5691 403.659 32.5691C403.659 32.5691 534.736 -2.47321 533.032 75.5282C533.032 75.5282 617.055 118.487 541.448 153.56C541.448 153.56 580.086 207.842 469.18 211.218C469.18 211.218 437.254 264.364 373.403 227.051C373.403 227.051 333.061 276.822 259.123 219.134C259.123 219.134 190.229 251.937 144.844 208.947C144.844 208.947 67.5331 233.832 69.2372 185.197C69.2372 185.197 44.0234 196.519 44.0234 162.582C44.0234 162.582 -8.07356 152.394 18.8096 120.727C18.8096 120.727 -50.085 54.018 91.0776 42.6952C91.0776 42.6952 117.961 -2.53458 171.727 26.8617C171.727 26.8617 220.451 -13.8574 245.664 30.2678L245.734 30.3291Z" fill="#FFFEF9" stroke="#231F20" stroke-width="3" stroke-miterlimit="10"/>
</svg>
