<?xml version="1.0" encoding="UTF-8"?>
<svg id="Layer_1" xmlns="http://www.w3.org/2000/svg" viewBox="0 0 80 60">
  <defs>
    <style>
      .cls-1 {
        fill: #fffffa;
        stroke: #231f20;
        stroke-miterlimit: 10;
      }
    </style>
  </defs>
  <path class="cls-1" d="M11.19,19.18s5.31-13.5,15.65-4.02c0,0,5.17-7.68,10.12-1.36,0,0,3.73-2.8,4.88.29,0,0,13.42-7.11,15.72,4.38,0,0,4.52-1.94,5.24,2.87,0,0,9.55-.07,7.54,9.69,0,0,4.02,2.3,1.15,5.81,0,0,5.89,6.46-3.66,9.26,0,0,.57,2.44-3.09,2.23,0,0-5.96,6.53-12.42,1.01,0,0-4.88,2.66-5.81-.72,0,0-13.28,5.31-17.16-2.58,0,0-5.46,1.15-5.46-2.08,0,0-5.53.86-4.24-3.3,0,0-8.33,1.72-8.11-4.02,0,0-5.31.29-4.16-5.81,0,0-6.39-5.81-.43-7.47,0,0-.93-6.46,4.24-4.16Z"/>
</svg>